<?xml version="1.0" encoding="utf-8"?>
<!-- Generator: Adobe Illustrator 17.1.0, SVG Export Plug-In . SVG Version: 6.00 Build 0)  -->
<!DOCTYPE svg PUBLIC "-//W3C//DTD SVG 1.1//EN" "http://www.w3.org/Graphics/SVG/1.1/DTD/svg11.dtd">
<svg version="1.1" id="Layer_1" xmlns="http://www.w3.org/2000/svg" xmlns:xlink="http://www.w3.org/1999/xlink" x="0px" y="0px"
	 viewBox="0 0 104 46" enable-background="new 0 0 104 46" xml:space="preserve">
<g>
	<g>
		<path fill="#28A4DD" d="M4.7,9H1C0.9,9,0.8,9,0.8,9.1v21c0,0.1,0.1,0.2,0.2,0.2h3.7c0.1,0,0.2-0.1,0.2-0.2v-21C4.9,9,4.8,9,4.7,9z
			"/>
		<path fill="#28A4DD" d="M27.1,15.4c-0.1-0.7-0.3-1.4-0.7-2.3c-0.3-0.8-0.8-1.6-1.5-2.4c-0.7-0.7-1.6-1.3-2.6-1.8
			c-1.1-0.5-2.5-0.7-4.1-0.7c-1.1,0-2,0.1-2.8,0.4c-0.8,0.3-1.5,0.6-2,0.9c-0.6,0.3-1,0.6-1.3,0.9c-0.1,0.1-0.1,0.1-0.1,0.2V9.1
			C12,9,11.9,9,11.8,9H8.1C8,9,7.9,9,7.9,9.1v21c0,0.1,0.1,0.2,0.2,0.2h3.7c0.1,0,0.2-0.1,0.2-0.2l0-12.8c0-0.3,0.1-0.8,0.3-1.4
			c0.1-0.6,0.4-1.2,0.9-1.7c0.4-0.6,1.1-1.1,1.9-1.5c0.8-0.4,1.9-0.6,3.3-0.6c1.1,0,2,0.2,2.7,0.6c0.7,0.4,1.2,0.9,1.5,1.5
			c0.3,0.6,0.6,1.2,0.7,1.9c0.1,0.7,0.2,1.2,0.2,1.7v12.4c0,0.1,0.1,0.2,0.2,0.2h3.7c0.1,0,0.2-0.1,0.2-0.2V17c0-0.2,0-0.4,0-0.7
			C27.2,16,27.2,15.7,27.1,15.4z"/>
		<path fill="#28A4DD" d="M51.1,0h-3.7c-0.1,0-0.2,0.1-0.2,0.2v11c-0.9-0.9-1.9-1.6-3.1-2.1c-1.3-0.6-2.7-0.9-4.1-0.9
			c-1.5,0-2.9,0.3-4.2,0.9c-1.3,0.6-2.4,1.4-3.4,2.5c-1,1-1.7,2.3-2.3,3.6c-0.6,1.4-0.8,2.9-0.8,4.5c0,1.6,0.3,3.1,0.8,4.4
			c0.6,1.4,1.3,2.6,2.3,3.6c1,1,2.1,1.9,3.4,2.4c1.3,0.6,2.7,0.9,4.2,0.9c1.5,0,2.9-0.3,4.1-0.8c1.1-0.5,2.2-1.2,3.1-2.1v2
			c0,0.1,0.1,0.2,0.2,0.2h3.7c0.1,0,0.2-0.1,0.2-0.2V0.2C51.3,0.1,51.2,0,51.1,0z M47.2,19.7c0,1-0.2,2-0.6,2.9
			c-0.4,0.9-0.9,1.7-1.5,2.4c-0.6,0.7-1.4,1.2-2.2,1.6c-0.8,0.4-1.7,0.6-2.7,0.6c-0.9,0-1.8-0.2-2.7-0.6c-0.8-0.4-1.6-0.9-2.2-1.6
			c-0.6-0.7-1.1-1.5-1.5-2.4c-0.4-0.9-0.5-1.9-0.5-2.9c0-1,0.2-2,0.5-2.9c0.4-0.9,0.8-1.7,1.5-2.4c0.6-0.7,1.4-1.2,2.2-1.6
			c0.8-0.4,1.7-0.6,2.7-0.6c0.9,0,1.8,0.2,2.7,0.6c0.8,0.4,1.6,0.9,2.2,1.6c0.6,0.7,1.1,1.5,1.5,2.4C47,17.7,47.2,18.7,47.2,19.7z"
			/>
		<path fill="#28A4DD" d="M72.9,13.5c-0.6-1.1-1.4-2-2.3-2.8c-0.9-0.8-1.9-1.4-3.1-1.8c-2.3-0.9-4.9-0.9-7.2,0
			c-1.1,0.4-2.2,1.1-3.1,1.8c-0.9,0.8-1.7,1.7-2.3,2.8c-0.6,1.1-1.1,2.2-1.4,3.5c-0.2,0.8-0.3,1.7-0.3,2.7c0,0.2,0,0.4,0,0.5
			c0,0.2,0,0.3,0,0.5c0.1,1.5,0.5,2.9,1.1,4.1c0.6,1.3,1.4,2.4,2.3,3.3c0.9,0.9,2,1.7,3.3,2.2c1.2,0.5,2.6,0.8,3.9,0.8
			c2,0,3.9-0.5,5.5-1.4c1.6-1,3-2.2,4-3.8c0.1-0.1,0-0.2-0.1-0.2l-3.1-2c0,0-0.1,0-0.1,0c0,0-0.1,0-0.1,0.1c-0.7,1-1.5,1.9-2.6,2.5
			c-1.1,0.6-2.3,0.9-3.6,0.9c-0.8,0-1.7-0.2-2.4-0.5c-0.8-0.3-1.4-0.8-2-1.4c-0.6-0.6-1.1-1.3-1.4-2c-0.4-0.7-0.6-1.5-0.7-2.4h17
			c0.1,0,0.2-0.1,0.2-0.1c0-0.2,0-0.3,0-0.5v-0.5c0-0.9-0.1-1.8-0.3-2.7C74,15.7,73.5,14.6,72.9,13.5z M57.7,16.8
			c0.5-1.3,1.3-2.5,2.3-3.3c1.1-0.9,2.4-1.4,3.8-1.4c1.4,0,2.7,0.5,3.8,1.4c1.1,0.9,1.8,2,2.3,3.3H57.7z"/>
		<path fill="#28A4DD" d="M95.8,15.4c-0.1-0.7-0.3-1.4-0.7-2.3c-0.3-0.8-0.8-1.6-1.5-2.4C93,10,92.1,9.4,91,8.9
			c-1.1-0.5-2.5-0.7-4.1-0.7c-1.1,0-2,0.1-2.8,0.4c-0.8,0.3-1.5,0.6-2,0.9c-0.6,0.3-1,0.6-1.3,0.9c-0.1,0.1-0.1,0.1-0.1,0.2V9.1
			C80.6,9,80.6,9,80.5,9h-3.7c-0.1,0-0.2,0.1-0.2,0.2v21c0,0.1,0.1,0.2,0.2,0.2h3.7c0.1,0,0.2-0.1,0.2-0.2l0-12.8
			c0-0.3,0.1-0.8,0.3-1.4c0.1-0.6,0.4-1.2,0.9-1.7c0.4-0.6,1.1-1.1,1.9-1.5c0.8-0.4,1.9-0.6,3.3-0.6c1.1,0,2,0.2,2.7,0.6
			c0.7,0.4,1.2,0.9,1.5,1.5c0.3,0.6,0.6,1.2,0.7,1.9c0.1,0.7,0.2,1.2,0.2,1.7v12.4c0,0.1,0.1,0.2,0.2,0.2h3.7c0.1,0,0.2-0.1,0.2-0.2
			V17c0-0.2,0-0.4,0-0.7C95.9,16,95.9,15.7,95.8,15.4z"/>
		<path fill="#28A4DD" d="M102.9,9h-3.7C99.1,9,99,9,99,9.1v21c0,0.1,0.1,0.2,0.2,0.2h3.7c0.1,0,0.2-0.1,0.2-0.2v-21
			C103.1,9,103,9,102.9,9z"/>
	</g>
	<path fill="#28A4DD" d="M4.7,2.9C4.2,2.4,3.6,2.2,2.9,2.2c-0.7,0-1.3,0.3-1.8,0.7C0.6,3.4,0.3,4,0.3,4.7C0.3,5.4,0.6,6,1,6.5
		C1.5,7,2.2,7.3,2.9,7.3c0.7,0,1.3-0.3,1.8-0.8C5.2,6,5.4,5.4,5.4,4.7C5.4,4,5.2,3.4,4.7,2.9L4.7,2.9z"/>
	<path fill="#28A4DD" d="M103,2.9c-0.5-0.5-1.1-0.7-1.8-0.7c-0.7,0-1.3,0.3-1.8,0.7c-0.5,0.5-0.8,1.1-0.8,1.8c0,0.7,0.3,1.3,0.8,1.8
		c0.5,0.5,1.1,0.8,1.8,0.8c0.7,0,1.3-0.3,1.8-0.8c0.5-0.5,0.7-1.1,0.7-1.8C103.7,4,103.5,3.4,103,2.9L103,2.9z"/>
	<path fill="#8AC340" d="M64.9,38.1l-3.1-2c-0.2-0.1-0.4-0.1-0.5,0.1c-1.1,1.5-2.5,2.7-4.1,3.7c-1.9,1.1-4,1.7-6.3,1.8l0,0l0,0
		c-2.3-0.1-4.4-0.7-6.3-1.8c-1.6-1-3-2.2-4.1-3.7c-0.1-0.1-0.3-0.2-0.5-0.1l-3.1,2c-0.1,0.1-0.1,0.1-0.2,0.2c0,0.1,0,0.2,0.1,0.3
		c1.5,2.1,3.4,3.8,5.7,5.1c2.4,1.4,5.1,2.2,8,2.3l0.3,0l0,0l0.2,0l0.2,0c2.9-0.1,5.6-0.9,8-2.3c2.3-1.3,4.2-3,5.7-5.1
		c0.1-0.1,0.1-0.2,0.1-0.3C65,38.2,65,38.2,64.9,38.1z"/>
</g>
</svg>
